<mxfile host="app.diagrams.net" modified="2022-02-09T09:54:21.591Z" agent="5.0 (Windows NT 10.0; Win64; x64) AppleWebKit/537.36 (KHTML, like Gecko) Chrome/98.0.4758.82 Safari/537.36" etag="hHtEAZA7uyvnW5Qjhu1Y" version="16.5.4" type="github" pages="2">
  <diagram id="ZRVPvfoUu4ZX1TqfuY74" name="Page-1">
    <mxGraphModel dx="1886" dy="901" grid="1" gridSize="10" guides="1" tooltips="1" connect="1" arrows="1" fold="1" page="0" pageScale="1" pageWidth="1100" pageHeight="850" math="0" shadow="0">
      <root>
        <mxCell id="YEHysUXk0OETEQBeYSjZ-0" />
        <mxCell id="YEHysUXk0OETEQBeYSjZ-1" parent="YEHysUXk0OETEQBeYSjZ-0" />
      </root>
    </mxGraphModel>
  </diagram>
  <diagram id="uvYqylgCdsXIeVHmodCY" name="Page-2">
    <mxGraphModel dx="1886" dy="901" grid="0" gridSize="10" guides="1" tooltips="1" connect="1" arrows="1" fold="1" page="0" pageScale="1" pageWidth="1100" pageHeight="850" math="0" shadow="0">
      <root>
        <mxCell id="GLRw4gn_Iuxu0Z5qzrro-0" />
        <mxCell id="GLRw4gn_Iuxu0Z5qzrro-1" parent="GLRw4gn_Iuxu0Z5qzrro-0" />
      </root>
    </mxGraphModel>
  </diagram>
</mxfile>
